<?xml version="1.0" standalone="no"?>
<!DOCTYPE svg PUBLIC "-//W3C//DTD SVG 20010904//EN"
 "http://www.w3.org/TR/2001/REC-SVG-20010904/DTD/svg10.dtd">
<svg version="1.0" xmlns="http://www.w3.org/2000/svg"
 width="450.000000pt" height="254.000000pt" viewBox="0 0 450.000000 254.000000"
 preserveAspectRatio="xMidYMid meet">
<metadata>
Created by potrace 1.10, written by Peter Selinger 2001-2011
</metadata>
<g transform="translate(0.000000,254.000000) scale(0.050000,-0.050000)"
fill="#000000" stroke="none">
<path d="M3410 3380 c-28 -55 -74 -112 -105 -128 -55 -28 -145 -133 -145 -169
0 -53 163 -60 237 -10 112 77 243 38 243 -71 0 -63 -33 -102 -84 -102 -29 0
-36 -17 -36 -90 0 -77 6 -90 40 -90 113 0 160 -166 67 -239 -93 -73 -287 -22
-287 76 0 11 -40 8 -95 -6 -214 -56 1 -313 264 -315 341 -3 532 318 317 532
-49 50 -50 54 -17 91 119 131 -21 421 -203 421 l-48 0 51 87 c67 114 67 113
-49 113 -99 0 -99 0 -150 -100z"/>
<path d="M1700 3184 c0 -9 11 -27 25 -41 18 -18 27 -142 31 -441 l7 -416 83
16 c46 9 90 17 98 17 8 1 17 115 20 255 l6 254 137 -184 c75 -101 140 -184
143 -184 3 0 66 81 140 180 168 225 161 228 153 -67 l-7 -247 65 -13 c35 -7
85 -13 110 -13 l45 0 3 412 c1 234 11 429 22 450 18 34 13 38 -45 38 -102 0
-174 -59 -326 -266 -170 -232 -138 -230 -309 -15 -182 228 -245 281 -333 281
-37 0 -68 -7 -68 -16z"/>
<path d="M4393 3184 c-26 -41 -332 -765 -344 -811 -15 -62 18 -113 72 -113 75
0 137 90 230 330 51 132 101 262 112 288 26 66 38 49 156 -248 117 -295 177
-370 292 -370 l70 0 -33 75 c-17 41 -44 107 -58 145 -57 152 -246 594 -271
634 -43 70 -197 117 -226 70z m119 -136 c-9 -23 -4 -29 17 -21 16 6 36 1 43
-11 9 -14 5 -16 -12 -6 -20 12 -23 7 -14 -17 11 -29 7 -31 -26 -13 -40 21 -52
61 -27 87 23 23 32 14 19 -19z"/>
<path d="M5000 2821 c0 -528 9 -541 364 -541 l206 0 46 80 45 80 -220 0 -221
0 0 380 0 380 -110 0 -110 0 0 -379z"/>
<path d="M5759 3185 c-1 -8 -1 -190 0 -405 l2 -390 60 -55 c47 -44 79 -55 154
-55 52 -1 155 -6 229 -13 330 -30 390 12 537 382 59 149 113 271 119 271 6 0
60 -124 120 -275 124 -312 178 -385 288 -385 89 0 100 -49 -89 412 -190 464
-200 481 -300 511 -114 34 -117 30 -287 -371 l-158 -372 -232 0 -232 0 7 380
6 380 -111 0 c-62 0 -113 -7 -113 -15z"/>
<path d="M2915 2518 c-40 -23 -47 -118 -11 -154 43 -43 135 -29 159 25 44 96
-56 183 -148 129z"/>
<path d="M1790 2048 c-23 -9 -26 -179 -3 -201 8 -8 20 5 26 29 7 25 27 44 48
44 39 0 74 74 46 100 -23 21 -93 38 -117 28z"/>
<path d="M1980 1960 c0 -55 9 -100 20 -100 11 0 20 15 20 34 0 28 7 26 42 -12
45 -48 80 -43 40 6 -16 19 -17 33 -3 41 34 22 24 88 -18 110 -80 44 -101 27
-101 -79z"/>
<path d="M2215 2038 c-82 -47 -7 -215 82 -184 84 29 103 106 43 166 -44 44
-73 49 -125 18z m121 -94 c-11 -60 -116 -57 -116 3 0 27 11 54 25 59 40 14 98
-26 91 -62z"/>
<path d="M2420 1960 c0 -55 9 -100 20 -100 11 0 20 18 20 40 0 30 13 40 51 40
29 0 46 9 39 20 -7 11 -30 20 -51 20 -22 0 -39 9 -39 20 0 11 32 20 70 20 39
0 70 9 70 20 0 11 -40 20 -90 20 l-90 0 0 -100z"/>
<path d="M2654 2048 c-8 -8 -14 -53 -14 -99 0 -84 0 -85 80 -92 56 -6 80 0 80
17 0 16 -25 26 -60 26 -33 0 -60 9 -60 20 0 11 18 20 40 20 22 0 40 9 40 20 0
11 -19 20 -41 20 -24 0 -36 9 -28 21 7 12 34 19 60 15 26 -3 50 3 53 14 7 23
-128 39 -150 18z"/>
<path d="M2885 2037 c-39 -39 -29 -76 26 -97 61 -24 48 -61 -16 -46 -42 11
-43 9 -12 -23 26 -28 40 -31 75 -12 56 30 53 77 -7 104 -53 25 -51 63 2 43 22
-8 29 -3 23 16 -12 37 -61 45 -91 15z"/>
<path d="M3074 2047 c-28 -27 -13 -86 26 -107 57 -30 50 -63 -10 -48 -27 7
-50 7 -50 1 0 -23 78 -52 109 -41 44 17 39 82 -9 108 -48 26 -54 64 -7 46 22
-8 30 -4 23 16 -10 31 -60 47 -82 25z"/>
<path d="M3238 2051 c-16 -16 6 -191 24 -191 23 0 24 174 1 188 -10 6 -21 7
-25 3z"/>
<path d="M3360 2020 c-79 -79 -19 -176 100 -161 109 14 81 201 -30 201 -16 0
-48 -18 -70 -40z m136 -76 c-8 -45 -107 -57 -123 -16 -6 17 2 45 19 61 39 39
114 6 104 -45z"/>
<path d="M3581 1965 c-1 -58 8 -105 19 -105 11 0 20 25 21 55 l0 55 49 -55
c65 -74 70 -71 70 45 0 55 -9 100 -20 100 -11 0 -20 -27 -20 -60 l0 -61 -59
66 -60 65 0 -105z"/>
<path d="M4000 1960 c0 -73 8 -100 28 -100 16 0 43 -5 60 -12 21 -8 32 -1 32
20 0 19 -17 32 -40 32 -33 0 -40 13 -40 80 0 44 -9 80 -20 80 -11 0 -20 -45
-20 -100z"/>
<path d="M4250 2040 c-13 -20 -9 -23 35 -28 15 -1 25 -31 25 -72 0 -92 38
-101 46 -10 4 38 15 70 25 70 11 0 19 14 19 30 0 35 -129 43 -150 10z"/>
<path d="M4460 2020 c-78 -78 -23 -174 94 -162 113 11 90 202 -24 202 -16 0
-48 -18 -70 -40z m108 -31 c40 -40 19 -89 -38 -89 -60 0 -84 61 -37 94 43 32
38 32 75 -5z"/>
<path d="M4680 1972 c0 -103 48 -151 106 -106 36 28 54 159 24 174 -11 6 -23
-23 -26 -65 -8 -100 -64 -105 -64 -6 0 38 -9 74 -20 81 -12 8 -20 -23 -20 -78z"/>
<path d="M4893 2047 c-21 -22 -15 -187 7 -187 11 0 20 15 20 33 0 31 3 31 37
0 49 -44 99 -46 62 -2 -19 23 -20 36 -2 54 31 31 29 46 -8 84 -33 32 -92 41
-116 18z"/>
<path d="M5080 1960 c0 -55 9 -100 20 -100 11 0 20 45 20 100 0 55 -9 100 -20
100 -11 0 -20 -45 -20 -100z"/>
<path d="M5205 2047 c-45 -18 -28 -87 26 -107 58 -23 46 -68 -13 -49 -45 14
-52 -21 -8 -38 38 -15 84 2 97 35 12 32 -7 61 -52 78 -49 18 -45 60 5 44 47
-15 55 20 8 38 -17 7 -33 11 -35 10 -1 0 -14 -6 -28 -11z"/>
<path d="M5360 1960 c0 -55 9 -100 20 -100 11 0 20 20 20 44 l0 45 32 -46 c29
-42 34 -43 57 -11 23 31 26 30 37 -11 20 -79 44 -28 37 79 l-7 104 -45 -74
-45 -75 -45 73 c-57 93 -61 91 -61 -28z"/>
<path d="M5759 2023 c-84 -68 -4 -196 105 -168 58 15 41 45 -25 45 -37 0 -65
12 -73 33 -16 42 42 86 95 73 46 -13 53 24 7 42 -47 18 -59 15 -109 -25z"/>
<path d="M5960 2020 c-68 -68 7 -197 96 -166 111 38 90 206 -26 206 -16 0 -48
-18 -70 -40z m136 -76 c-11 -60 -116 -57 -116 3 0 27 11 54 25 59 40 14 98
-26 91 -62z"/>
<path d="M6181 1965 c-1 -58 8 -105 19 -105 11 0 20 20 21 45 l1 45 32 -45
c29 -43 33 -43 58 -10 25 33 27 33 27 0 1 -19 10 -35 21 -35 11 0 20 43 20 95
l0 95 -51 -60 c-34 -39 -55 -51 -62 -35 -5 13 -27 45 -48 70 l-38 45 0 -105z"/>
<path d="M6453 2047 c-21 -22 -15 -187 7 -187 11 0 20 14 20 30 0 17 17 30 38
30 87 0 100 105 16 128 -57 15 -65 15 -81 -1z"/>
<path d="M6840 1964 c0 -57 9 -104 20 -104 11 0 20 25 21 55 l0 55 49 -55 c65
-74 70 -71 70 45 0 55 -9 100 -20 100 -11 0 -20 -24 -20 -54 l0 -53 -60 57
-60 57 0 -103z"/>
<path d="M7040 2044 c0 -9 13 -34 29 -55 17 -22 30 -59 30 -83 1 -24 10 -49
21 -56 11 -7 20 4 20 24 0 20 19 66 41 103 48 79 33 114 -20 44 l-36 -48 -23
44 c-23 42 -62 59 -62 27z"/>
<path d="M3815 1956 c-38 -89 -33 -116 13 -77 22 18 40 18 72 1 63 -34 68 -14
21 78 -52 102 -62 102 -106 -2z"/>
<path d="M6648 1950 c-40 -88 -26 -120 28 -66 20 20 34 20 66 -1 61 -38 66
-17 19 75 -53 103 -62 102 -113 -8z"/>
</g>
</svg>
